<svg viewBox="0 0 28 28" fill="none" xmlns="http://www.w3.org/2000/svg">
<path fill-rule="evenodd" clip-rule="evenodd" d="M13.9676 0C14.151 0 14.5179 0.0523487 14.7865 0.117785C15.055 0.18322 15.4088 0.307548 15.5726 0.386072C15.7364 0.471138 18.3568 2.24445 21.4032 4.3384C24.4495 6.4258 27.0699 8.258 27.2272 8.40196C27.3844 8.54592 27.5809 8.78149 27.6595 8.92545C27.7447 9.06941 27.8626 9.36387 27.9216 9.57981C28.0199 9.91353 28.0199 10.0313 27.9543 10.365C27.9085 10.581 27.8037 10.8951 27.7185 11.0652C27.6333 11.2419 27.4302 11.5102 27.2665 11.6738C27.1027 11.8373 26.7751 12.0664 26.5262 12.1842C26.2838 12.3019 25.8907 12.4394 25.2028 12.5571V20.9984H26.0545C26.6113 20.9984 26.9782 21.0311 27.1158 21.0834C27.2337 21.1358 27.4434 21.2863 27.5809 21.4302C27.7382 21.5938 27.8626 21.8032 27.9216 22.0126C27.9937 22.2613 28.0002 22.4118 27.9478 22.6343C27.915 22.7978 27.8102 23.0334 27.7251 23.1577C27.6333 23.2821 27.4565 23.4588 27.0765 23.714L14.1379 23.7336C5.87028 23.7467 1.10756 23.727 0.963436 23.6878C0.838964 23.6551 0.609672 23.498 0.452444 23.341C0.255908 23.1512 0.137986 22.9549 0.0724745 22.7324C0.00696255 22.4838 0.000411362 22.3333 0.0528209 22.1108C0.0855768 21.9472 0.190396 21.7116 0.275561 21.5873C0.367278 21.463 0.54416 21.2863 0.681735 21.1947C0.904476 21.0442 0.98309 21.0311 2.79777 20.9984V12.5899L2.35884 12.5048C2.1099 12.459 1.73648 12.3347 1.52029 12.23C1.3041 12.1253 0.996192 11.929 0.832413 11.785C0.668633 11.6476 0.445892 11.3597 0.334522 11.1437C0.216601 10.9343 0.092128 10.5941 0.0462697 10.3978C-0.0192422 10.0902 -0.0192422 9.97242 0.0724745 9.61253C0.131435 9.37696 0.255908 9.06941 0.341073 8.92545C0.426239 8.78149 0.609672 8.55901 0.747247 8.42159C0.884822 8.29072 3.5184 6.45852 6.59746 4.34494C9.67652 2.23136 12.2839 0.458051 12.3953 0.399159C12.5066 0.340266 12.8276 0.229025 13.1159 0.150502C13.4041 0.0719794 13.7841 0 13.9676 0ZM5.61478 20.9984H9.08691V12.6226H5.61478V20.9984ZM11.9039 20.9984H16.0967V12.6226H11.9039V20.9984ZM18.9137 20.9984H22.3858V12.6226H18.9137V20.9984ZM13.9807 25.1928C24.5739 25.1863 26.9455 25.1993 27.1158 25.2713C27.2337 25.3237 27.4434 25.4742 27.5809 25.6181C27.7251 25.7686 27.8692 26.0042 27.9281 26.1874C28.0002 26.423 28.0068 26.567 27.9543 26.8091C27.915 26.9792 27.8233 27.2082 27.7382 27.3195C27.6595 27.4373 27.522 27.5878 27.4302 27.6597C27.3385 27.7317 27.1354 27.843 26.9717 27.8953C26.7031 27.9935 25.4452 28 14.0003 28C3.02706 28 1.28444 27.9869 1.02895 27.9084C0.858617 27.8495 0.616223 27.6925 0.452444 27.5289C0.26901 27.3456 0.137986 27.1362 0.0724745 26.9399C0.000411362 26.6978 -0.00613983 26.5539 0.0462697 26.3183C0.0855768 26.1416 0.177294 25.9126 0.262459 25.8014C0.341073 25.6836 0.478648 25.5331 0.570365 25.4611C0.662082 25.3891 0.806208 25.2975 0.897925 25.2582C1.00929 25.219 5.33308 25.1928 13.9872 25.1928H13.9807Z" fill="currentColor"/>
</svg>
