<svg viewBox="0 0 23 30" fill="none" xmlns="http://www.w3.org/2000/svg">
<path fill-rule="evenodd" clip-rule="evenodd" d="M10.2955 0.0761719C10.2838 0.117188 10.1021 0.164062 9.86778 0.193359C9.64513 0.216797 9.21156 0.292969 8.90688 0.363281C8.60221 0.427734 8.08661 0.574219 7.76436 0.685547C7.44211 0.796875 6.90307 1.01953 6.56324 1.17773C6.22341 1.3418 5.74882 1.59375 5.5086 1.74023C5.26838 1.89258 4.87582 2.15625 4.64731 2.32617C4.41295 2.49609 4.01453 2.81836 3.76845 3.03516C3.5165 3.25781 3.09465 3.69727 2.82513 4.01953C2.55561 4.33594 2.1982 4.81055 2.02829 5.06836C1.85252 5.32617 1.56542 5.8125 1.38965 6.15234C1.20801 6.49219 0.961932 7.03125 0.833031 7.35352C0.704131 7.67578 0.528358 8.21484 0.44633 8.55469C0.364303 8.89453 0.258839 9.43359 0.211966 9.75586C0.165093 10.0781 0.100643 10.3477 0.0654883 10.3594C0.0244745 10.3652 0.00103809 10.6992 0.00103809 11.4082C-0.00482102 12.2871 0.0127563 12.4629 0.0889247 12.5391C0.141657 12.5859 0.18267 12.7031 0.176811 12.8027C0.176811 12.9023 0.211966 13.1895 0.258839 13.4473C0.305712 13.7051 0.399457 14.1387 0.469767 14.4141C0.540076 14.6895 0.680695 15.1348 0.786159 15.4102C0.897482 15.6855 1.11427 16.1777 1.28418 16.5117C1.44824 16.8398 1.72362 17.3262 1.89353 17.5898C2.0693 17.8594 4.12585 20.6602 6.46949 23.8184C8.81314 26.9766 10.8345 29.6602 10.9634 29.7832C11.1626 29.9766 11.2271 30 11.4849 30C11.6489 30 11.7778 29.9707 11.7778 29.9414C11.7778 29.9062 11.8657 29.7949 11.9771 29.6953C12.0884 29.5898 14.0805 26.9297 16.4124 23.7891C18.7385 20.6484 20.7833 17.8652 20.9532 17.6074C21.1173 17.3496 21.3926 16.8633 21.5626 16.5234C21.7325 16.1836 21.9551 15.6855 22.0664 15.4102C22.1719 15.1348 22.3242 14.6484 22.4063 14.3262C22.4883 14.0039 22.582 13.5 22.6172 13.2129C22.6524 12.9258 22.7227 12.6152 22.7695 12.5273C22.8281 12.4043 22.8516 12.1113 22.8516 11.3672C22.8516 10.5586 22.834 10.3535 22.7637 10.2832C22.7168 10.2363 22.6758 10.1074 22.6758 10.0078C22.6758 9.90234 22.6113 9.49805 22.5293 9.11133C22.4531 8.72461 22.3067 8.15625 22.2071 7.85156C22.1075 7.54688 21.8731 6.97852 21.6856 6.5918C21.4981 6.20508 21.211 5.66602 21.0411 5.39062C20.8653 5.11523 20.6075 4.73438 20.461 4.54102C20.3146 4.34766 20.1036 4.08984 19.9982 3.97266C19.8927 3.84961 19.8165 3.73242 19.8341 3.70898C19.8458 3.67969 19.7111 3.51562 19.5353 3.33984C19.3595 3.16406 19.1662 3.01172 19.1135 3.00586C19.0607 2.99414 18.9318 2.91211 18.8381 2.82422C18.7443 2.73047 18.5041 2.53711 18.3108 2.39062C18.1174 2.24414 17.7366 1.98633 17.4612 1.81055C17.1858 1.64062 16.6468 1.35352 16.2601 1.16602C15.8734 0.978516 15.305 0.744141 15.0004 0.644531C14.6957 0.544922 14.1273 0.398438 13.7406 0.322266C13.3539 0.240234 12.9497 0.175781 12.8501 0.175781C12.7329 0.175781 12.645 0.140625 12.6274 0.0878906C12.604 0.0117188 12.4223 0 11.4615 0C10.606 0 10.3189 0.0175781 10.2955 0.0761719ZM10.7818 3.45703C10.5064 3.48047 10.1256 3.5332 9.93225 3.57422C9.7389 3.61523 9.32876 3.72656 9.02409 3.82031C8.71941 3.91992 8.26826 4.08984 8.02804 4.20117C7.78782 4.3125 7.37768 4.54102 7.11988 4.71094C6.86208 4.88086 6.45194 5.19141 6.21172 5.40234C5.97149 5.60742 5.58479 6 5.35629 6.26953C5.12778 6.54492 4.81139 6.9668 4.65319 7.20703C4.50086 7.44727 4.28993 7.83398 4.18446 8.05664C4.08486 8.2793 3.91495 8.72461 3.81534 9.04102C3.71574 9.35156 3.59269 9.83789 3.53996 10.1191C3.48723 10.418 3.45208 10.9688 3.44622 11.4258C3.44622 11.8945 3.48723 12.4277 3.53996 12.7324C3.59269 13.0137 3.71574 13.5 3.81534 13.8105C3.9208 14.127 4.09072 14.584 4.20204 14.8242C4.31336 15.0645 4.54187 15.4746 4.71178 15.7324C4.8817 15.9902 5.18637 16.3945 5.3973 16.6348C5.60237 16.875 5.97149 17.2383 6.21172 17.4434C6.45194 17.6543 6.85036 17.9531 7.09058 18.1113C7.33081 18.2754 7.69993 18.4863 7.91086 18.5859C8.12179 18.6914 8.5788 18.8672 8.9362 18.9844L9.5807 19.2012C10.3775 20.373 10.6939 20.8008 10.7994 20.9004C10.9049 21.0117 11.0865 21.1172 11.2213 21.1465C11.3677 21.1816 11.5318 21.1758 11.6607 21.1406C11.772 21.1113 11.9419 21.0117 12.0298 20.9297C12.1236 20.8418 12.4458 20.4141 12.7446 19.9805L13.2895 19.1895C14.1391 18.9316 14.5844 18.7676 14.8246 18.6562C15.0648 18.5391 15.516 18.2812 15.8207 18.0762C16.1253 17.8711 16.5765 17.5254 16.8167 17.3027C17.0569 17.0801 17.4261 16.6875 17.6311 16.4297C17.8362 16.1777 18.094 15.8262 18.1995 15.6563C18.3108 15.4922 18.4748 15.1992 18.5686 15.0117C18.6623 14.8301 18.8322 14.4023 18.9494 14.0625C19.0666 13.7227 19.2189 13.1836 19.2892 12.8613C19.3771 12.4336 19.4123 12.0527 19.4123 11.4551C19.4123 10.9043 19.3771 10.4531 19.3068 10.0781C19.2482 9.77344 19.1018 9.22266 18.9787 8.85938C18.8498 8.50195 18.6682 8.03906 18.5686 7.83398C18.4631 7.63477 18.3166 7.36523 18.2287 7.23633C18.1467 7.10742 17.9182 6.79102 17.719 6.5332C17.5198 6.27539 17.1741 5.88867 16.9397 5.66602C16.7112 5.44922 16.307 5.10937 16.0433 4.91602C15.7738 4.7168 15.2933 4.42969 14.9711 4.27148C14.6488 4.11914 14.1742 3.91992 13.9164 3.83203C13.6586 3.75 13.1958 3.63281 12.8911 3.57422C12.5864 3.51562 12.0943 3.45703 11.8072 3.43945C11.5201 3.42188 11.0572 3.42773 10.7818 3.45703ZM15.1758 10.4912H7.67578C7.42714 10.4912 7.18868 10.3924 7.01287 10.2166C6.83705 10.0408 6.73828 9.80235 6.73828 9.55371C6.73828 9.30507 6.83705 9.06661 7.01287 8.8908C7.18868 8.71498 7.42714 8.61621 7.67578 8.61621H15.1758C15.4244 8.61621 15.6629 8.71498 15.8387 8.8908C16.0145 9.06661 16.1133 9.30507 16.1133 9.55371C16.1133 9.80235 16.0145 10.0408 15.8387 10.2166C15.6629 10.3924 15.4244 10.4912 15.1758 10.4912ZM7.67578 14.2412C7.42714 14.2412 7.18868 14.1424 7.01287 13.9666C6.83705 13.7908 6.73828 13.5523 6.73828 13.3037C6.73828 13.0551 6.83705 12.8166 7.01287 12.6408C7.18868 12.465 7.42714 12.3662 7.67578 12.3662H15.1758C15.4244 12.3662 15.6629 12.465 15.8387 12.6408C16.0145 12.8166 16.1133 13.0551 16.1133 13.3037C16.1133 13.5523 16.0145 13.7908 15.8387 13.9666C15.6629 14.1424 15.4244 14.2412 15.1758 14.2412H7.67578Z" fill="currentColor"/>
</svg>
