<svg viewBox="0 0 30 28" fill="none" xmlns="http://www.w3.org/2000/svg">
<path d="M12.2936 3.6443C12.5504 3.29122 13.2486 2.48876 13.8504 1.86284V1.85482C14.4442 1.2289 14.9738 0.715332 15.014 0.715332C15.0541 0.715332 15.5757 1.2289 16.1695 1.85482C16.7633 2.48876 17.4615 3.29122 17.7182 3.6443C17.967 3.99738 18.3281 4.57515 18.5127 4.92823C18.6972 5.28131 18.962 5.85908 19.0985 6.21216C19.2349 6.56524 19.4355 7.21523 19.5478 7.65658C19.6522 8.09793 19.7806 8.89236 19.8287 9.42199C19.8929 10.1281 19.8929 10.6257 19.8207 11.3078C19.7725 11.8133 19.6762 12.4874 19.612 12.7923C19.5478 13.0972 19.4194 13.5867 19.3232 13.8756C19.2349 14.1645 19.0343 14.6701 18.8979 14.9991C18.7534 15.3281 18.4645 15.8898 18.2559 16.2429C18.0472 16.5959 17.7102 17.1015 17.5096 17.3663C17.301 17.6311 16.8115 18.1848 16.4102 18.5941C16.017 19.0033 15.664 19.3403 15.6319 19.3323C15.5917 19.3323 15.5677 17.5749 15.5677 15.4244C15.5677 12.0701 15.5516 11.4843 15.4473 11.3318C15.359 11.1874 15.2467 11.1473 15.0059 11.1473C14.7652 11.1473 14.6529 11.1874 14.5646 11.3238C14.4603 11.4843 14.4442 12.0701 14.4442 15.4163C14.4442 17.5749 14.4201 19.3323 14.388 19.3323C14.3479 19.3403 13.9948 19.0033 13.6016 18.5941C13.2004 18.1848 12.7109 17.6311 12.5023 17.3663C12.3017 17.1015 11.9646 16.5959 11.756 16.2429C11.5393 15.8898 11.2825 15.4003 11.1702 15.1595C11.0659 14.9188 10.8733 14.4133 10.7449 14.0361C10.6165 13.659 10.44 12.9929 10.3597 12.5516C10.2714 12.1102 10.1832 11.4041 10.1511 10.9868C10.127 10.5695 10.1431 9.83124 10.1912 9.34174C10.2393 8.85224 10.3517 8.13003 10.448 7.73683C10.5363 7.34362 10.7208 6.72573 10.8492 6.37265C10.9776 6.01957 11.2504 5.40168 11.4591 5.00847C11.6677 4.61527 12.0449 3.99738 12.2936 3.6443Z" fill="currentColor"/>
<path d="M0 14.9509C0 14.4534 0.0240737 13.988 0.056172 13.9157C0.104319 13.7954 0.296909 13.7873 1.80553 13.8275C3.08143 13.8596 3.6592 13.9077 4.17277 14.0281C4.54993 14.1164 5.14375 14.2849 5.49683 14.4052C5.84991 14.5256 6.4678 14.7824 6.861 14.975C7.25421 15.1756 7.88815 15.5447 8.2653 15.7935C8.66653 16.0583 9.33257 16.62 9.87824 17.1657C10.464 17.7515 10.9856 18.3774 11.3066 18.8589C11.5875 19.2762 11.9727 19.9502 12.1572 20.3434C12.3498 20.7446 12.6146 21.4267 12.751 21.8681C12.8875 22.3094 13.0479 22.9995 13.1121 23.3928C13.1763 23.794 13.2566 24.5884 13.2887 25.1582C13.3208 25.7279 13.3128 26.2575 13.2807 26.3217C13.2405 26.41 12.5424 25.76 10.4801 23.6977C8.7548 21.9564 7.68753 20.9453 7.58322 20.9453C7.49494 20.9453 7.32643 21.0095 7.19804 21.1058C7.03754 21.2261 6.98137 21.3385 6.98137 21.5311C6.98137 21.7638 7.24618 22.0527 12.4782 27.2847H11.6757C11.2344 27.2847 10.5684 27.2445 10.1912 27.2044C9.81404 27.1563 9.20418 27.0439 8.82702 26.9557C8.44987 26.8594 7.78383 26.6507 7.34248 26.4742C6.90113 26.3057 6.25114 25.9927 5.89806 25.7921C5.54497 25.5835 4.98326 25.2143 4.65425 24.9656C4.32524 24.7168 3.77957 24.2434 3.44254 23.9144C3.11353 23.5853 2.60798 23.0076 2.33515 22.6304C2.05429 22.2533 1.66911 21.6594 1.48454 21.3064C1.29196 20.9533 1.02714 20.3916 0.890727 20.0626C0.762334 19.7336 0.56172 19.1157 0.449376 18.6984C0.337032 18.2811 0.19259 17.4626 0.120368 16.8929C0.056172 16.3231 0 15.4404 0 14.9509Z" fill="currentColor"/>
<path d="M25.9595 14.0201C26.3126 13.9478 26.7058 13.8756 26.8422 13.8596C26.9706 13.8435 27.7329 13.8275 29.9718 13.8435L29.9958 14.646C30.0119 15.0873 29.9798 15.8978 29.9316 16.4515C29.8835 17.0052 29.7711 17.7836 29.6829 18.1768C29.6026 18.578 29.4502 19.1317 29.3619 19.4206C29.2656 19.7095 29.0168 20.3033 28.8082 20.7446C28.5915 21.186 28.2384 21.8199 28.0218 22.1489C27.8051 22.478 27.3557 23.0557 27.0267 23.4329C26.6977 23.81 26.128 24.3637 25.7508 24.6606C25.3817 24.9656 24.7157 25.423 24.2743 25.6878C23.833 25.9526 23.1108 26.3057 22.6694 26.4822C22.228 26.6507 21.562 26.8674 21.1849 26.9557C20.8077 27.0439 20.1978 27.1563 19.8207 27.2044C19.4435 27.2445 18.7775 27.2847 17.5337 27.2847L20.2781 24.5403C22.7657 22.0527 23.0305 21.7638 23.0305 21.5311C23.0305 21.3385 22.9743 21.2261 22.8058 21.1058C22.6854 21.0095 22.525 20.9372 22.4367 20.9453C22.3484 20.9453 21.1688 22.0607 19.5398 23.6977C17.4775 25.76 16.7713 26.41 16.7312 26.3217C16.6991 26.2575 16.6911 25.7279 16.7232 25.1582C16.7553 24.5884 16.8355 23.7699 16.9078 23.3526C16.972 22.9354 17.1405 22.2452 17.2689 21.828C17.4053 21.4107 17.6621 20.7446 17.8547 20.3434C18.0392 19.9502 18.4244 19.2762 18.7053 18.8589C18.9861 18.4416 19.5238 17.7756 19.9009 17.3824C20.2781 16.9891 20.9281 16.4114 21.3453 16.0984C21.7626 15.7855 22.5009 15.32 22.9904 15.0713C23.4719 14.8225 24.1941 14.5096 24.5953 14.3812C24.9885 14.2528 25.6064 14.0843 25.9595 14.0201Z" fill="currentColor"/>
</svg>
