<svg viewBox="0 0 24 25" fill="none" xmlns="http://www.w3.org/2000/svg">
<path fill-rule="evenodd" clip-rule="evenodd" d="M21.3333 24.5H2.66667C1.19391 24.5 0 23.3061 0 21.8333V3.16667C0 1.69391 1.19391 0.5 2.66667 0.5H21.3333C22.8061 0.5 24 1.69391 24 3.16667V21.8333C24 23.3061 22.8061 24.5 21.3333 24.5ZM17.1052 21.1666H20.6666V13.8504C20.6666 10.7548 18.9119 9.25805 16.4608 9.25805C14.0087 9.25805 12.9767 11.1676 12.9767 11.1676V9.61109H9.54442V21.1666H12.9767V15.1007C12.9767 13.4753 13.7248 12.5082 15.1569 12.5082C16.4732 12.5082 17.1052 13.4376 17.1052 15.1007V21.1666ZM3.33331 5.96565C3.33331 7.1432 4.28066 8.09798 5.44976 8.09798C6.61886 8.09798 7.56565 7.1432 7.56565 5.96565C7.56565 4.7881 6.61886 3.83331 5.44976 3.83331C4.28066 3.83331 3.33331 4.7881 3.33331 5.96565ZM7.25645 21.1666H3.6775V9.61109H7.25645V21.1666Z" fill="currentColor"/>
</svg>
