<svg  viewBox="0 0 25 30" fill="none" xmlns="http://www.w3.org/2000/svg">
<path d="M16.5223 3.26834C17.0159 2.63958 17.8033 1.62888 18.2734 1.02951C18.9256 0.189218 19.1372 -0.0458292 19.1959 0.00705645C19.2312 0.0423135 20.0186 1.03539 20.947 2.2165C21.8696 3.39761 22.8215 4.64924 23.0625 5.00768C23.2975 5.36025 23.6031 5.86561 23.7324 6.12416C23.8675 6.38271 24.0497 6.80579 24.1319 7.06435C24.2788 7.49331 24.2906 7.61671 24.2965 8.44525C24.2965 9.2209 24.2788 9.42657 24.1613 9.80852C24.0908 10.0612 23.938 10.4608 23.8205 10.6899C23.703 10.925 23.4973 11.2776 23.3563 11.4715C23.2211 11.6654 22.9097 12.0062 22.6688 12.2354C22.422 12.4587 22.0812 12.7349 21.9107 12.8348C21.7345 12.9405 21.3819 13.1168 21.1233 13.2285C20.8648 13.3401 20.4476 13.4753 20.2008 13.5223C19.9481 13.5752 19.478 13.6163 19.1548 13.6163C18.8316 13.6163 18.3615 13.5752 18.1147 13.5223C17.8621 13.4694 17.4566 13.3519 17.2157 13.2578C16.9748 13.1697 16.5752 12.964 16.3342 12.8054C16.0933 12.6467 15.7231 12.347 15.5116 12.1414C15.3 11.9357 15.0062 11.5949 14.8652 11.3833C14.7242 11.1718 14.5244 10.8133 14.4186 10.5901C14.3128 10.3609 14.1659 9.95543 14.0954 9.67925C13.9955 9.29729 13.9661 9.01524 13.9603 8.47463C13.9603 7.91639 13.9897 7.66959 14.0954 7.29939C14.1659 7.04084 14.3481 6.57662 14.4891 6.27106C14.636 5.9655 14.9533 5.41902 15.1884 5.06645C15.4293 4.708 16.0287 3.90296 16.5223 3.26834Z" fill="currentColor"/>
<path d="M3.38903 12.9053C3.67108 12.4998 5.45157 10.1905 7.34369 7.78124L10.7813 3.39761L10.9047 3.52689C10.9752 3.5974 11.4159 4.14389 12.7322 5.83035L12.6499 6.03602C12.6029 6.14766 12.503 6.45322 12.4266 6.71178C12.3502 6.97033 12.2562 7.45805 12.2209 7.79887C12.1622 8.26896 12.1622 8.56865 12.215 9.06225C12.2503 9.41482 12.3502 9.9613 12.4325 10.2669C12.5147 10.5724 12.691 11.0601 12.8262 11.354C12.9672 11.6419 13.2199 12.0944 13.3962 12.3529C13.5724 12.6115 13.9544 13.0639 14.2482 13.3519C14.5361 13.6457 15.018 14.0394 15.3059 14.2333C15.5938 14.4272 16.0639 14.6858 16.3519 14.8033C16.6339 14.9267 17.1217 15.0971 17.4331 15.1793C17.8797 15.2969 18.2087 15.338 19.7718 15.4026L20.0186 15.9315C20.1538 16.2253 20.3418 16.7013 20.4358 16.9951C20.5357 17.283 20.6709 17.7884 20.7414 18.1116C20.8119 18.4583 20.8765 19.04 20.9 19.5218C20.9177 20.0213 20.9059 20.5796 20.8648 20.9321C20.8236 21.2553 20.7531 21.7195 20.7061 21.9605C20.6591 22.2014 20.5122 22.7185 20.3829 23.1063C20.2537 23.4941 20.0127 24.0759 19.8482 24.3991C19.6837 24.7223 19.4604 25.1336 19.3429 25.3099C19.2312 25.4862 18.9844 25.8329 18.8022 26.0738C18.6142 26.3147 18.2323 26.7495 17.9443 27.0375C17.6564 27.3254 17.1452 27.7661 16.8043 28.0188C16.4635 28.2774 15.8583 28.6534 15.4528 28.8591C15.0474 29.0648 14.4539 29.3292 14.1307 29.4408C13.8075 29.5525 13.2786 29.6994 12.9554 29.764C12.6323 29.8287 12.2092 29.9168 12.0153 29.9521C11.792 29.9932 11.2866 30.0108 10.6344 29.9932C10.0702 29.9756 9.39448 29.9286 9.13593 29.8757C8.87738 29.8287 8.44254 29.7288 8.16636 29.6583C7.89018 29.5819 7.37895 29.4056 7.0205 29.2645C6.66206 29.1235 6.20372 28.912 5.99217 28.7945C5.78063 28.6769 5.42218 28.4595 5.19889 28.3067C4.97559 28.154 4.54076 27.8308 4.24695 27.584C3.94726 27.3313 3.48892 26.8847 3.23037 26.585C2.96594 26.2912 2.61337 25.8329 2.43709 25.5743C2.2608 25.3158 1.97287 24.828 1.79658 24.4872C1.6203 24.1464 1.35587 23.5118 1.20896 23.0769C1.06794 22.6421 0.891651 21.9546 0.827013 21.5491C0.73887 21.0379 0.703613 20.5561 0.703613 19.9743C0.703613 19.516 0.732994 18.9342 0.768251 18.6816C0.803508 18.4348 0.897527 17.9647 0.979794 17.6415C1.05618 17.3183 1.23247 16.7894 1.35587 16.4662C1.48515 16.143 1.73194 15.6142 1.90235 15.291C2.07276 14.9678 2.35482 14.4625 2.53698 14.1745C2.71914 13.8807 3.10109 13.3107 3.38903 12.9053Z" fill="currentColor"/>
</svg>
