<svg  viewBox="0 0 30 30" fill="none" xmlns="http://www.w3.org/2000/svg">
<path d="M12.4976 0.322329C12.6559 0.269584 13.0309 0.181676 13.3181 0.11721C13.699 0.0410236 14.1151 0.00586052 14.8125 0C15.4513 0 15.9495 0.0293026 16.2777 0.0879078C16.5531 0.134792 16.7875 0.187537 16.8051 0.210979C16.8227 0.22856 16.852 0.351631 16.8813 0.486423C16.9047 0.615355 16.9399 1.16038 16.9634 1.69369C16.9868 2.33249 16.9751 2.85993 16.9223 3.24673C16.8872 3.56906 16.7875 4.05548 16.7055 4.33092C16.6293 4.60637 16.4652 5.0166 16.348 5.2393C16.2073 5.50889 15.9846 5.80191 15.6916 6.08908C15.4162 6.36452 15.1114 6.60481 14.8711 6.73374C14.6602 6.83923 14.3027 6.9916 14.08 7.06779C13.8573 7.14397 13.4295 7.2436 13.1423 7.29049C12.8493 7.33737 12.2281 7.37839 11.7534 7.37839C11.2728 7.37839 10.634 7.34323 10.3292 7.30221C9.8604 7.2436 9.7725 7.2143 9.74905 7.11467C9.73147 7.05021 9.69045 6.76304 9.65528 6.47001C9.62598 6.17699 9.59668 5.6261 9.59668 5.2393C9.59668 4.85251 9.6377 4.28404 9.68459 3.97929C9.72561 3.67455 9.82524 3.24087 9.89557 3.01231C9.96589 2.78375 10.1007 2.44384 10.1945 2.25044C10.2941 2.05704 10.4816 1.75816 10.6164 1.58234C10.7453 1.40652 11.0032 1.15452 11.179 1.01973C11.3548 0.884938 11.6596 0.691541 11.853 0.597773C12.0464 0.498144 12.3335 0.375073 12.4976 0.322329Z" fill="currentColor"/>
<path d="M23.0466 3.83278C23.2048 3.78004 23.4861 3.71557 23.6619 3.68627C23.8377 3.65696 24.1542 3.64524 24.3652 3.66282C24.5762 3.68041 24.9044 3.73315 25.0978 3.78004C25.2912 3.82692 25.6604 3.97343 25.9182 4.0965C26.1761 4.21957 26.6098 4.4833 26.8852 4.68842C27.1607 4.88767 27.6236 5.29205 27.9108 5.58508C28.2038 5.8781 28.6023 6.32936 29.1591 7.05607L28.8602 7.4663C28.6961 7.689 28.3093 8.1344 28.0046 8.45673C27.694 8.7732 27.2193 9.20102 26.9438 9.40613C26.6684 9.61125 26.2347 9.8867 25.9768 10.0156C25.719 10.1446 25.297 10.3028 25.0391 10.3673C24.7813 10.4317 24.3886 10.4845 24.1601 10.4845C23.9315 10.4845 23.5506 10.4376 23.3103 10.3731C23.07 10.3145 22.6715 10.168 22.4312 10.0449C22.1909 9.92772 21.81 9.69916 21.5814 9.54679C21.3529 9.38855 20.9368 9.04278 20.6496 8.7732C20.3625 8.50361 19.9229 8.02891 19.6709 7.7183C19.413 7.40184 19.2079 7.12053 19.2079 7.08537C19.2079 7.05607 19.3779 6.80992 19.583 6.5462C19.7881 6.27662 20.1866 5.83122 20.4738 5.54405C20.761 5.26275 21.2064 4.87595 21.4642 4.68256C21.7221 4.48916 22.1147 4.24302 22.3433 4.13167C22.5719 4.02032 22.8825 3.88552 23.0466 3.83278Z" fill="currentColor"/>
<path d="M1.16925 8.39812C1.27474 8.37468 1.53261 8.33952 1.74358 8.31608C1.95456 8.29263 2.45271 8.26919 2.85708 8.26333C3.26146 8.26333 3.82407 8.28677 4.11709 8.32194C4.41012 8.3571 4.86724 8.45087 5.14269 8.53292C5.41813 8.6091 5.82251 8.7732 6.05107 8.89041C6.27377 9.00762 6.64298 9.2772 6.85982 9.48818C7.08252 9.69916 7.3521 10.0156 7.46345 10.1914C7.56894 10.3673 7.7389 10.7306 7.83852 11.0002C7.93229 11.2639 8.06122 11.7269 8.11397 12.0258C8.17843 12.3774 8.2136 12.8931 8.2136 13.5026C8.2136 14.0184 8.1843 14.6689 8.14327 14.956C8.10225 15.2549 8.04364 15.4776 7.99676 15.4894C7.9616 15.5011 7.65099 15.5421 7.31108 15.5831C6.91842 15.63 6.34995 15.6476 5.72874 15.6241C5.19543 15.6066 4.5918 15.548 4.38082 15.5011C4.16984 15.4542 3.84165 15.3604 3.64825 15.2901C3.45486 15.2198 3.12667 15.0791 2.91569 14.9678C2.70471 14.8564 2.38824 14.6279 2.20657 14.4579C2.02489 14.2879 1.76703 13.9773 1.63223 13.7664C1.49744 13.5554 1.30991 13.1686 1.21614 12.9049C1.11651 12.6353 0.999298 12.1723 0.940693 11.8793C0.882088 11.5276 0.846925 11.0002 0.841064 10.3966C0.841064 9.88084 0.870367 9.23032 0.981717 8.43329L1.16925 8.39812Z" fill="currentColor"/>
<path d="M17.8307 23.2956C18.0241 23.2487 18.2644 23.1959 18.3582 23.1842C18.4519 23.1666 18.7274 23.1666 18.9618 23.1784C19.1904 23.1901 19.5068 23.2311 19.6592 23.2663C19.8174 23.3014 20.1808 23.4421 20.4679 23.5769C20.7551 23.7117 21.1771 23.9519 21.4056 24.1102C21.6283 24.2743 22.0444 24.6259 22.3374 24.9013C22.6246 25.1768 23.0642 25.6574 23.3162 25.9738C23.5916 26.3079 23.7616 26.5716 23.7381 26.6185C23.7205 26.6536 23.5389 26.8998 23.3396 27.1576C23.1345 27.4155 22.7125 27.8785 22.3961 28.1891C22.0737 28.4938 21.6166 28.8865 21.3763 29.0565C21.136 29.2264 20.8079 29.4315 20.6438 29.5136C20.4855 29.5956 20.1222 29.7363 19.835 29.83C19.4306 29.9648 19.2197 30 18.8153 30C18.405 30 18.1823 29.9648 17.7428 29.8242C17.4381 29.7304 16.9751 29.5312 16.7172 29.3846C16.4593 29.2323 16.0667 28.9627 15.8381 28.781C15.6096 28.5993 15.2345 28.2536 14.9942 28.0074C14.7539 27.7671 14.3847 27.351 13.787 26.595L14.0214 26.261C14.1503 26.0793 14.543 25.6339 14.9004 25.2647C15.2579 24.8955 15.7678 24.4266 16.0433 24.2215C16.3187 24.0164 16.7524 23.7468 17.0102 23.6179C17.2681 23.489 17.6373 23.3483 17.8307 23.2956Z" fill="currentColor"/>
<path d="M13.6463 10.9181C13.9159 10.6954 14.2324 10.4376 14.3437 10.3497C14.4551 10.2618 14.5723 10.1914 14.6074 10.1914C14.6426 10.1914 14.8536 10.3262 15.0763 10.4962C15.3048 10.6661 15.7209 11.0295 16.0081 11.3049C16.2894 11.5804 16.7055 12.0434 16.9223 12.3305C17.145 12.6236 17.4322 13.069 17.5611 13.3268C17.6842 13.5847 17.8366 13.9422 17.8893 14.118C17.9421 14.2938 18.0007 14.663 18.0182 14.9385C18.0358 15.2842 18.0182 15.5714 17.9538 15.8761C17.901 16.1164 17.7428 16.556 17.6021 16.8431C17.4615 17.1362 17.2154 17.5523 17.0571 17.7808C16.893 18.0094 16.5531 18.4138 16.3011 18.6833C16.0491 18.9529 15.5803 19.3807 15.2697 19.6327C14.9532 19.8906 14.6602 20.0957 14.625 20.0957C14.584 20.0957 14.3906 19.9668 14.1913 19.8144C13.9979 19.662 13.6522 19.3749 13.4295 19.1756C13.2068 18.9822 12.8493 18.613 12.6383 18.3551C12.4215 18.1031 12.1108 17.687 11.9467 17.4292C11.7768 17.1713 11.5658 16.7552 11.472 16.5091C11.3724 16.2571 11.2669 15.8234 11.2318 15.5421C11.1732 15.1201 11.179 14.9443 11.2552 14.5575C11.3021 14.2997 11.4252 13.8894 11.5248 13.6491C11.6244 13.4089 11.8354 13.0104 11.9936 12.7701C12.1519 12.5298 12.4742 12.1078 12.7145 11.8324C12.9548 11.5569 13.3709 11.1467 13.6463 10.9181Z" fill="currentColor"/>
<path d="M24.6289 13.3034C24.8868 13.2331 25.2794 13.1569 25.508 13.1276C25.7366 13.1041 26.223 13.0748 26.5922 13.069C26.9614 13.069 27.5064 13.0924 27.7936 13.1217C28.0808 13.1569 28.3855 13.192 28.4676 13.2096C28.6023 13.2389 28.6199 13.2799 28.6844 13.696C28.7254 13.9422 28.7723 14.411 28.7957 14.7333C28.8133 15.0674 28.8016 15.6241 28.7606 16.0227C28.7196 16.4095 28.6434 16.9076 28.5848 17.1362C28.5262 17.3647 28.4207 17.7046 28.3445 17.898C28.2742 18.0914 28.0749 18.4489 27.9108 18.6892C27.7408 18.9353 27.4595 19.2518 27.2603 19.41C27.0727 19.5624 26.7328 19.7793 26.5043 19.8906C26.2757 20.002 25.8303 20.166 25.508 20.254C24.9454 20.4063 24.8633 20.4122 23.5154 20.4122C22.7418 20.4122 21.9917 20.3829 21.5814 20.3008L21.5053 19.8906C21.4642 19.662 21.4291 19.0174 21.4232 18.4548C21.4173 17.8453 21.4408 17.2416 21.4877 16.9603C21.5287 16.7025 21.6166 16.3215 21.6811 16.1106C21.7455 15.8996 21.8979 15.5304 22.0151 15.2901C22.1734 14.9619 22.3492 14.7275 22.6949 14.3759C23.07 14.0008 23.2634 13.8543 23.6619 13.6609C23.9374 13.5319 24.371 13.3678 24.6289 13.3034Z" fill="currentColor"/>
<path d="M3.60137 19.5917C3.85337 19.5741 4.08779 19.5507 4.11709 19.539C4.15226 19.5273 4.51561 19.5155 4.93757 19.5155C5.35953 19.5097 5.96316 19.5507 6.28549 19.5976C6.60782 19.6503 7.10596 19.7675 7.39899 19.8672C7.68615 19.9668 8.08467 20.1426 8.27806 20.2598C8.47146 20.3712 8.78793 20.629 8.98133 20.8283C9.17472 21.0275 9.42087 21.3323 9.52635 21.5081C9.62598 21.6839 9.79008 22.0473 9.88971 22.3227C9.98347 22.5982 10.1007 23.0846 10.1534 23.4069C10.2003 23.7292 10.2413 24.3505 10.2413 24.7841C10.2413 25.2178 10.212 25.8156 10.1769 26.1028C10.1417 26.3958 10.0831 26.6595 10.0421 26.7005C10.0069 26.7357 9.70217 26.8002 9.36226 26.8412C8.98719 26.8822 8.36011 26.8998 7.75062 26.8763C6.936 26.8529 6.64884 26.8177 6.16828 26.6947C5.84595 26.6126 5.35953 26.4309 5.08408 26.2962C4.71487 26.1086 4.48045 25.9387 4.1757 25.6339C3.953 25.4112 3.67756 25.0772 3.57793 24.9013C3.47244 24.7255 3.32006 24.3973 3.24388 24.1688C3.16183 23.9402 3.05634 23.5593 3.0036 23.319C2.95085 23.0787 2.89225 22.4985 2.87466 22.0297C2.85122 21.4847 2.8688 20.9279 2.92155 20.4767C2.96257 20.0781 3.0329 19.7441 3.07392 19.7031C3.11495 19.662 3.35523 19.6093 3.60137 19.5917Z" fill="currentColor"/>
</svg>
