<svg viewBox="0 0 30 23" fill="none" xmlns="http://www.w3.org/2000/svg">
<path d="M3.57422 0.276107C3.7207 0.223373 3.95508 0.141341 4.10156 0.0944663C4.25391 0.0475913 4.61133 0.00657567 4.95117 0.000716294C5.39062 0.000716294 5.64258 0.0300132 5.94727 0.117904C6.16992 0.188216 6.54492 0.334701 6.76758 0.451888C7.04883 0.598373 7.32422 0.80931 7.64648 1.13158C7.99219 1.48314 8.17383 1.72337 8.33203 2.04564C8.45508 2.28587 8.58984 2.65501 8.63672 2.86595C8.68945 3.07689 8.73047 3.46947 8.73047 3.74486C8.73047 4.02025 8.68945 4.41283 8.63672 4.62376C8.58984 4.8347 8.45508 5.20384 8.33203 5.44408C8.17383 5.76634 7.99219 6.01243 7.64648 6.35814C7.27734 6.73314 7.07227 6.88548 6.67969 7.07884C6.4043 7.21361 5.99414 7.36009 5.77148 7.40697C5.54883 7.45384 5.20898 7.49486 5.02148 7.49486C4.83984 7.49486 4.48242 7.45384 4.23633 7.40111C3.98438 7.35423 3.59766 7.21947 3.36914 7.10814C3.14062 7.00267 2.82422 6.79759 2.6543 6.66283C2.48438 6.5222 2.23828 6.27611 2.10352 6.1179C1.96875 5.95384 1.76953 5.64915 1.66406 5.4265C1.55273 5.2097 1.42383 4.86986 1.36523 4.66478C1.30664 4.44798 1.27148 4.07884 1.27148 3.74486C1.27148 3.40501 1.3125 3.04173 1.37109 2.80736C1.42383 2.59642 1.57617 2.22728 1.69922 1.98704C1.83398 1.72923 2.07422 1.39525 2.28516 1.17845C2.47852 0.979232 2.78906 0.71556 2.9707 0.592513C3.1582 0.475326 3.42773 0.328841 3.57422 0.276107Z" fill="currentColor"/>
<path d="M13.4766 0.24681C13.6875 0.176498 13.9512 0.100326 14.0625 0.0651694C14.1738 0.0358725 14.5781 0.00657567 14.9531 0.000716294C15.4805 -0.00514308 15.7617 0.0241538 16.125 0.117904C16.3945 0.188216 16.8516 0.352279 17.1387 0.492904C17.4258 0.633529 17.8359 0.873763 18.0469 1.03197C18.2578 1.19017 18.5918 1.51829 18.7969 1.75853C18.9961 1.99876 19.2832 2.41478 19.4238 2.69017C19.5645 2.96556 19.7344 3.38743 19.8047 3.62767C19.8867 3.91478 19.9453 4.30736 19.9629 4.77025C19.9863 5.30345 19.9746 5.59056 19.8984 5.97142C19.8398 6.24681 19.7109 6.66868 19.6113 6.90892C19.5117 7.14915 19.3066 7.53001 19.1543 7.75853C19.002 7.98119 18.6738 8.3679 18.4219 8.60814C18.1641 8.85423 17.8008 9.1472 17.6074 9.25853C17.4141 9.37572 17.0859 9.53392 16.875 9.62181C16.6641 9.70384 16.3125 9.82103 16.084 9.87376C15.8086 9.93822 15.4453 9.97337 14.9707 9.97337C14.4551 9.96751 14.1445 9.93236 13.7988 9.84447C13.541 9.78001 13.0547 9.58665 12.7148 9.41673C12.2344 9.17064 12 9.00658 11.6074 8.63744C11.3379 8.37962 10.9922 7.98119 10.8457 7.75853C10.6934 7.53587 10.4883 7.14915 10.3887 6.90892C10.2891 6.66868 10.166 6.26439 10.1133 6.01244C10.0605 5.76634 10.0195 5.29759 10.0195 4.97533C10.0195 4.65306 10.0605 4.19603 10.1133 3.96165C10.1602 3.73314 10.2715 3.36986 10.3535 3.15892C10.4355 2.94798 10.6113 2.60814 10.7402 2.3972C10.8633 2.18626 11.0801 1.88743 11.2148 1.72923C11.3438 1.56517 11.6543 1.28392 11.8945 1.09056C12.1348 0.897201 12.5039 0.656966 12.7148 0.551498C12.9258 0.446029 13.2656 0.311263 13.4766 0.24681Z" fill="currentColor"/>
<path d="M23.2031 0.463607C23.4141 0.352279 23.7656 0.205794 23.9941 0.135482C24.293 0.0417319 24.5566 0.000716294 24.9727 0.000716294C25.3418 -0.00514308 25.6582 0.0300132 25.8516 0.0886069C26.0215 0.135482 26.3203 0.24681 26.5137 0.322982C26.707 0.399154 27.0352 0.592513 27.2461 0.750716C27.457 0.908919 27.75 1.19017 27.8965 1.37767C28.0488 1.57103 28.248 1.88744 28.3535 2.08665C28.4531 2.29173 28.5762 2.61986 28.6348 2.81908C28.6934 3.04173 28.7285 3.41087 28.7285 3.74486C28.7285 4.0847 28.6875 4.44798 28.623 4.68236C28.5703 4.89329 28.4414 5.22142 28.3477 5.41478C28.248 5.60814 28.0664 5.89525 27.9375 6.05931C27.8145 6.21751 27.5566 6.48118 27.375 6.63353C27.1934 6.78587 26.8594 7.00267 26.6309 7.114C26.4023 7.21947 26.0156 7.35423 25.7637 7.40111C25.5176 7.45384 25.1602 7.49486 24.9727 7.49486C24.791 7.49486 24.457 7.45384 24.2285 7.40697C24 7.36009 23.5957 7.21361 23.3203 7.07884C22.9277 6.88548 22.7227 6.73314 22.3535 6.35814C22.0078 6.01243 21.8262 5.76634 21.668 5.44408C21.5449 5.20384 21.4102 4.8347 21.3633 4.62376C21.3105 4.41283 21.2695 4.02025 21.2695 3.74486C21.2695 3.46947 21.3105 3.07689 21.3633 2.86595C21.4102 2.65501 21.5449 2.28587 21.668 2.04564C21.8262 1.72337 22.0078 1.48314 22.3535 1.13743C22.6523 0.832748 22.957 0.592513 23.2031 0.463607Z" fill="currentColor"/>
<path d="M2.63672 8.91868C2.8125 8.87181 3.08789 8.80736 3.25195 8.77806C3.41016 8.75462 4.29492 8.7429 5.21484 8.74876C6.84961 8.76048 6.89648 8.76634 7.35352 8.91868C7.61133 9.00658 7.95117 9.15306 8.11523 9.24681C8.27344 9.3347 8.56055 9.54564 8.74219 9.71556C8.92969 9.87962 9.08203 10.032 9.08203 10.0554C9.08203 10.0847 8.91797 10.2136 8.71875 10.3484C8.51367 10.4831 8.11523 10.8113 7.82813 11.0808C7.54102 11.3503 7.14258 11.7663 6.94922 12.0066C6.75 12.2468 6.42773 12.7214 6.22266 13.0613C6.01758 13.4011 5.75391 13.9402 5.625 14.2624C5.50195 14.5847 5.33203 15.1238 5.25 15.4636C5.16797 15.8035 5.07422 16.366 5.03906 16.7234C5.00977 17.0808 4.98047 17.4031 4.98047 17.4382C4.98047 17.4968 4.69336 17.5144 3.73828 17.5144C3.05273 17.5144 2.32031 17.4851 2.10938 17.4499C1.89844 17.4148 1.59375 17.3269 1.43555 17.2507C1.27148 17.1745 1.02539 17.0105 0.878906 16.8816C0.732422 16.7585 0.533203 16.5242 0.427734 16.366C0.322266 16.2077 0.1875 15.9206 0.117188 15.7273C0.00585938 15.405 0 15.241 0 13.7351C0 12.282 0.0117188 12.0417 0.117188 11.6257C0.181641 11.3679 0.304688 11.0105 0.392578 10.8347C0.480469 10.6589 0.667969 10.366 0.814453 10.1902C0.955078 10.0144 1.20117 9.76244 1.35352 9.63353C1.50586 9.50462 1.78711 9.31126 1.97461 9.20579C2.16211 9.10033 2.46094 8.97142 2.63672 8.91868Z" fill="currentColor"/>
<path d="M22.6172 8.9304C22.793 8.87181 23.0684 8.8015 23.2324 8.77806C23.3906 8.75462 24.2754 8.7429 25.1953 8.74876C26.5605 8.76634 26.9297 8.78978 27.2168 8.87181C27.4102 8.92454 27.7383 9.05931 27.9492 9.17064C28.1602 9.27611 28.459 9.47533 28.623 9.61009C28.7812 9.74486 29.0332 10.0027 29.1797 10.1843C29.3262 10.366 29.5195 10.6589 29.6016 10.8347C29.6895 11.0105 29.8125 11.3562 29.877 11.5964C29.9883 11.9949 30 12.1941 30 13.6882C30 15.112 29.9824 15.3933 29.8945 15.6804C29.8359 15.8679 29.7012 16.1609 29.5898 16.3367C29.4785 16.5124 29.2676 16.7585 29.1211 16.8816C28.9746 17.0105 28.7227 17.1745 28.5645 17.2507C28.4004 17.3269 28.1016 17.4148 27.8906 17.4499C27.6797 17.4851 26.9473 17.5144 26.2617 17.5144C25.3066 17.5144 25.0195 17.4968 25.0195 17.4382C25.0195 17.4031 24.9902 17.0808 24.9609 16.7234C24.9258 16.366 24.832 15.8035 24.75 15.4636C24.668 15.1238 24.498 14.5847 24.375 14.2624C24.2461 13.9402 23.9941 13.4245 23.8125 13.1199C23.6309 12.8152 23.3203 12.3523 23.1152 12.0945C22.916 11.8367 22.5527 11.4382 22.3184 11.2097C22.0781 10.9812 21.6738 10.6413 21.416 10.4538C21.1582 10.2605 20.9355 10.0964 20.918 10.0847C20.9004 10.073 21.0469 9.90892 21.2461 9.72728C21.4395 9.54564 21.7559 9.31712 21.9492 9.21751C22.1367 9.1179 22.4414 8.98314 22.6172 8.9304Z" fill="currentColor"/>
<path d="M11.8359 11.5437C12.0469 11.4792 12.4277 11.3855 12.6855 11.3386C13.0195 11.28 13.6758 11.2566 14.9414 11.2507C16.3008 11.2449 16.8516 11.2624 17.2559 11.3327C17.543 11.3855 17.9531 11.4792 18.1641 11.5437C18.375 11.614 18.7441 11.7663 18.9844 11.8835C19.2246 12.0066 19.5938 12.2175 19.8047 12.3581C20.0156 12.4988 20.3965 12.8269 20.6543 13.0847C20.918 13.3484 21.2344 13.7175 21.3691 13.9109C21.498 14.1042 21.7148 14.4734 21.8438 14.7312C21.9727 14.989 22.1484 15.4226 22.2246 15.698C22.3066 15.9734 22.4004 16.407 22.4414 16.6648C22.4824 16.9577 22.5 17.5671 22.4883 18.3054C22.4648 19.3894 22.4473 19.5124 22.3066 19.9167C22.2188 20.157 22.0605 20.5027 21.9551 20.6785C21.8555 20.8542 21.5977 21.1706 21.3867 21.3816C21.1758 21.5925 20.8594 21.8503 20.6836 21.9558C20.5078 22.0554 20.1211 22.2253 19.3066 22.4949H10.6641L10.1777 22.3308C9.91406 22.2429 9.53906 22.0788 9.3457 21.9675C9.1582 21.8562 8.82422 21.5925 8.61328 21.3816C8.40234 21.1706 8.14453 20.8542 8.04492 20.6785C7.93945 20.5027 7.78125 20.157 7.69336 19.9167C7.54688 19.5066 7.53516 19.4011 7.51172 18.2761C7.49414 17.3269 7.51172 16.9519 7.58789 16.489C7.64648 16.1667 7.75195 15.7331 7.82227 15.5222C7.89258 15.3113 8.02148 14.9949 8.10352 14.8191C8.18555 14.6433 8.39062 14.2859 8.56055 14.0281C8.72461 13.7702 9.07617 13.3484 9.33984 13.0847C9.59766 12.8269 9.97266 12.5046 10.166 12.3757C10.3594 12.2468 10.7285 12.03 10.9863 11.9011C11.2441 11.7722 11.625 11.614 11.8359 11.5437Z" fill="currentColor"/>
</svg>
