<svg viewBox="0 0 27 30" fill="none" xmlns="http://www.w3.org/2000/svg">
<path d="M10.9506 0.436112C11.0348 0.351985 11.2521 0.218782 11.4274 0.141665C11.7148 0.0154738 11.9041 0.0014525 13.4394 0.0014525C15.0168 -0.00555814 15.171 0.00846315 15.4795 0.141665C15.6618 0.218782 15.8861 0.351985 15.9702 0.436112C16.0614 0.52024 16.2086 0.716538 16.2857 0.870772C16.4119 1.10913 16.44 1.29141 16.475 3.00902L21.3614 3.04407L21.6979 3.25439C21.9503 3.40863 22.0905 3.56286 22.4411 4.23588L22.4271 8.51237L18.0524 7.27149C15.6407 6.58445 13.5726 6.0236 13.4604 6.0236C13.3483 6.0236 11.2801 6.58445 4.49382 8.51237L4.4798 4.23588L4.68311 3.8503C4.83033 3.56286 4.97055 3.40863 5.55944 3.04407L10.4459 3.00902L10.4669 2.08361C10.4809 1.29141 10.509 1.10913 10.6351 0.870772C10.7123 0.716538 10.8595 0.52024 10.9506 0.436112Z" fill="currentColor"/>
<path d="M1.99102 12.4173C2.27846 12.1649 2.5028 12.0948 7.68367 10.6086C11.2311 9.585 13.194 9.05219 13.4254 9.04518C13.6848 9.03817 15.143 9.43077 19.1741 10.5805C22.9458 11.6602 24.6354 12.1789 24.7826 12.2911C24.8948 12.3752 25.0631 12.5435 25.1472 12.6557C25.2243 12.7678 25.3295 12.9992 25.3785 13.1745C25.4276 13.3848 25.4346 13.5811 25.3926 13.7704C25.3575 13.9246 24.6775 15.5511 23.8853 17.3808C23.0861 19.2106 22.4341 20.7319 22.4341 20.76C22.4341 20.795 23.3104 21.2577 24.383 21.7905C25.5047 22.3514 26.4021 22.8491 26.5143 22.9613C26.6194 23.0735 26.7526 23.2838 26.8087 23.424C26.8718 23.5712 26.9209 23.7956 26.9209 23.9148C26.9209 24.041 26.8858 24.2653 26.8508 24.4055C26.8087 24.5527 26.6755 24.7841 26.5563 24.9313C26.4301 25.0715 26.1988 25.2398 26.0445 25.3099C25.8903 25.38 25.5959 25.4431 25.3996 25.4431C25.0631 25.4431 24.8457 25.3519 23.0159 24.4335C21.4456 23.6554 20.8707 23.403 20.436 23.3048C20.0084 23.2067 19.7069 23.1857 19.1741 23.2207C18.7465 23.2417 18.3258 23.3118 18.0875 23.396C17.8771 23.4731 17.3724 23.6904 16.9658 23.8867C16.5591 24.076 16.0263 24.3003 15.774 24.3845C15.5216 24.4616 15.0729 24.5808 14.7784 24.6369C14.477 24.6929 13.8881 24.742 13.4604 24.742C13.0328 24.742 12.4439 24.6929 12.1424 24.6369C11.848 24.5808 11.3993 24.4616 11.1469 24.3845C10.8945 24.3003 10.3617 24.076 9.95512 23.8867C9.5485 23.6904 9.04373 23.4731 8.83341 23.396C8.59505 23.3118 8.17441 23.2417 7.74676 23.2207C7.21395 23.1857 6.9125 23.2067 6.48485 23.3048C6.05019 23.403 5.47531 23.6554 3.91194 24.4335C2.12423 25.3309 1.85081 25.4431 1.54234 25.4431C1.34604 25.4431 1.07263 25.394 0.925405 25.3309C0.785192 25.2748 0.574873 25.1416 0.462703 25.0365C0.350532 24.9313 0.203309 24.721 0.133202 24.5668C0.0630958 24.4125 0 24.1531 0 23.9849C0 23.8236 0.0490745 23.5712 0.11217 23.424C0.168255 23.2838 0.301458 23.0735 0.406617 22.9613C0.518788 22.8491 1.41615 22.3514 2.53785 21.7905C3.61048 21.2577 4.48681 20.802 4.48681 20.781C4.48681 20.76 3.83482 19.2387 3.04262 17.3949C2.24341 15.5581 1.56337 13.9246 1.52832 13.7704C1.47925 13.56 1.48626 13.3848 1.57038 13.0833C1.66152 12.7678 1.74565 12.6276 1.99102 12.4173Z" fill="currentColor"/>
<path d="M5.4683 24.9593C5.7978 24.8682 6.2535 24.7701 6.48485 24.742C6.7162 24.714 7.13684 24.6859 7.41726 24.6789C7.69068 24.6789 8.1674 24.707 8.46886 24.749C8.76331 24.7911 9.27508 24.9033 9.60458 25.0014C9.93408 25.0926 10.6281 25.373 11.1469 25.6183C11.6657 25.8567 12.2686 26.0951 12.4789 26.1441C12.6893 26.2002 13.1309 26.2353 13.4604 26.2353C13.7899 26.2353 14.2316 26.1932 14.4419 26.1441C14.6522 26.0951 15.2622 25.8567 15.795 25.6113C16.3208 25.366 17.0148 25.0855 17.3373 24.9944C17.6528 24.9033 18.1996 24.7841 18.5432 24.742C18.9217 24.6859 19.4545 24.6719 19.8752 24.7C20.2608 24.721 20.8917 24.8191 21.2773 24.9173C21.8522 25.0575 22.364 25.2818 24.1166 26.1512C25.2944 26.733 26.346 27.2939 26.4582 27.392C26.5703 27.4972 26.7176 27.7075 26.7877 27.8618C26.8578 28.016 26.9209 28.2544 26.9209 28.3876C26.9209 28.5208 26.8858 28.7521 26.8508 28.8923C26.8087 29.0395 26.6755 29.2709 26.5563 29.4181C26.4301 29.5583 26.1567 29.7476 25.9604 29.8388C25.7571 29.9229 25.5047 30 25.3996 30C25.2874 30 24.2989 29.5513 23.1001 28.9624C21.4736 28.1562 20.8707 27.8898 20.436 27.7916C20.0084 27.6935 19.7069 27.6725 19.1741 27.7075C18.7465 27.7286 18.3258 27.7987 18.0875 27.8828C17.8771 27.9599 17.3724 28.1772 16.9658 28.3735C16.5591 28.5628 16.0263 28.7872 15.774 28.8713C15.5216 28.9484 15.0729 29.0676 14.7784 29.1237C14.477 29.1798 13.8881 29.2288 13.4604 29.2288C13.0328 29.2288 12.4439 29.1798 12.1494 29.1237C11.848 29.0676 11.3993 28.9484 11.1469 28.8713C10.8945 28.7872 10.3617 28.5628 9.95512 28.3735C9.5485 28.1772 9.04373 27.9599 8.83341 27.8828C8.59505 27.7987 8.17441 27.7286 7.74676 27.7075C7.21395 27.6725 6.9125 27.6935 6.48485 27.7916C6.05019 27.8898 5.44727 28.1562 3.8208 28.9624C2.62198 29.5513 1.63348 30 1.52832 30C1.41615 30 1.16377 29.9229 0.967469 29.8317C0.76416 29.7406 0.511777 29.5794 0.406617 29.4672C0.301458 29.355 0.168255 29.1447 0.11217 28.9975C0.0490745 28.8573 0 28.6119 0 28.4577C0 28.3034 0.0490745 28.0581 0.11217 27.9108C0.168255 27.7706 0.301458 27.5603 0.406617 27.4481C0.518788 27.3289 1.45821 26.8242 2.73415 26.1862C4.23443 25.4361 5.04766 25.0715 5.4683 24.9593Z" fill="currentColor"/>
</svg>
