<svg viewBox="0 0 27 27" fill="none" xmlns="http://www.w3.org/2000/svg">
<path fill-rule="evenodd" clip-rule="evenodd" d="M13.21 0.00527447L13.79 0L20.2764 4.47275C25.7238 8.22817 26.7838 8.97714 27 9.35691V17.6906C27 24.1518 26.9842 26.0717 26.9314 26.2299C26.8998 26.3407 26.7943 26.5148 26.71 26.6097C26.6256 26.7046 26.4621 26.8312 26.3514 26.8945C26.1721 26.9947 26.0666 27 23.625 27V20.1432C23.625 14.0617 23.6145 13.2653 23.5406 13.086C23.4984 12.9805 23.3982 12.8222 23.3191 12.7431C23.24 12.6587 23.0871 12.548 22.9816 12.4899C22.7865 12.395 22.5281 12.3897 13.5 12.3897C4.47188 12.3897 4.21348 12.395 4.02363 12.4899C3.91289 12.548 3.75996 12.6587 3.68086 12.7431C3.60176 12.8222 3.50156 12.9805 3.45937 13.0912C3.38555 13.2653 3.375 14.0617 3.375 27H2.10938C0.922852 27 0.833203 26.9947 0.648633 26.8892C0.537891 26.8259 0.395508 26.7257 0.326953 26.6677C0.263672 26.6044 0.158203 26.4515 0.105469 26.3301C0 26.1086 0 25.9451 0 9.35691L0.121289 9.1512C0.216211 8.98242 1.31836 8.2018 6.72363 4.47802L13.21 0.00527447ZM8.70117 21.3563V21.8468C8.70117 22.2477 8.72227 22.3743 8.81719 22.5694C8.88574 22.7013 9.02285 22.8595 9.12305 22.9281C9.24434 23.0072 9.38672 23.0494 9.53438 23.0442C9.65566 23.0442 9.84023 23.002 9.9457 22.9545C10.0564 22.9017 10.1883 22.791 10.2516 22.7013C10.3412 22.5747 10.3676 22.4376 10.415 21.3827L11.3643 21.3669C11.9232 21.3563 12.3979 21.3721 12.5139 21.4091C12.6193 21.4354 12.7564 21.5251 12.8145 21.6095C12.9199 21.7466 12.9252 21.8205 12.9199 24.1676C12.9199 25.9135 12.9041 26.6097 12.8566 26.6994C12.825 26.7627 12.7459 26.8576 12.6879 26.9051C12.5877 26.9895 12.3346 27 9.58184 27C6.82383 27 6.58125 26.9947 6.44941 26.9103C6.37559 26.8576 6.28066 26.7416 6.23848 26.6466C6.18574 26.5095 6.16992 25.9662 6.16992 24.1782C6.16992 22.2899 6.18574 21.8521 6.24375 21.715C6.28594 21.62 6.40195 21.4987 6.49687 21.4513C6.64453 21.3721 6.8291 21.3616 8.70117 21.3563V21.3563ZM16.585 21.3827L16.6113 21.9629C16.6324 22.4376 16.6588 22.5747 16.7484 22.7013C16.8117 22.791 16.9436 22.9017 17.0543 22.9545C17.1598 23.002 17.3443 23.0442 17.4709 23.0442C17.6133 23.0494 17.7557 23.0072 17.8717 22.9281C17.9719 22.8595 18.1037 22.7224 18.1617 22.6222C18.2514 22.4745 18.2725 22.3268 18.2988 21.3563H19.3008C20.1498 21.3563 20.3291 21.3721 20.4926 21.4513C20.6033 21.504 20.7088 21.6095 20.7563 21.715C20.8143 21.8521 20.8301 22.2952 20.8301 24.1782C20.8301 25.9662 20.8143 26.5095 20.7615 26.6466C20.7193 26.7416 20.6244 26.8576 20.5506 26.9103C20.4188 26.9947 20.1762 27 17.4129 27C14.6654 27 14.4123 26.9895 14.3121 26.9051C14.2541 26.8576 14.175 26.7627 14.1434 26.6994C14.0959 26.6097 14.0801 25.9135 14.0801 24.1676C14.0801 22.0262 14.0906 21.7361 14.1645 21.6306C14.2119 21.562 14.3227 21.4724 14.4176 21.4302C14.5389 21.3774 14.8289 21.3616 16.585 21.3827V21.3827ZM12.6562 14.605L12.6668 15.1799C12.6826 15.6704 12.6984 15.7812 12.7934 15.9078C12.8514 15.9869 12.9832 16.1082 13.0834 16.1768C13.2047 16.2559 13.3418 16.2981 13.5 16.2981C13.6582 16.2981 13.7953 16.2559 13.9166 16.1768C14.0168 16.1082 14.1486 15.9869 14.2066 15.9078C14.3016 15.7812 14.3174 15.6704 14.3438 14.605H15.3457C16.1209 14.605 16.3898 14.6261 16.5322 14.6841C16.6377 14.7316 16.7537 14.8318 16.7959 14.9215C16.8645 15.0586 16.875 15.4384 16.8486 19.9322L16.5586 20.2223H10.4414L10.1514 19.9322L10.1355 17.506C10.125 15.4384 10.1355 15.0586 10.2041 14.9215C10.2463 14.8371 10.3623 14.7316 10.452 14.6894C10.5838 14.6261 10.8686 14.6103 12.6562 14.605Z" fill="currentColor"/>
</svg>
