<svg  viewBox="0 0 31 30" fill="none" xmlns="http://www.w3.org/2000/svg">
<path d="M16.8432 2.16755C17.0014 1.95665 17.5405 1.38254 18.0386 0.896309L18.9469 0H19.6325L20.5759 0.954892C21.1443 1.529 21.6424 2.09139 21.8299 2.37258C22.0057 2.63035 22.246 3.05214 22.3632 3.3099C22.4862 3.56766 22.6562 4.03046 22.7382 4.33509C22.8671 4.78617 22.9023 5.06151 22.9257 5.79965C22.9492 6.49092 22.9375 6.8307 22.8671 7.20562C22.8144 7.48096 22.7792 7.70943 22.7851 7.71529C22.791 7.72115 23.0195 7.686 23.2949 7.63328C23.6699 7.56298 24.0098 7.55126 24.7013 7.57469C25.4338 7.59813 25.7209 7.63327 26.1662 7.7563C26.471 7.84417 27.0101 8.05507 27.3675 8.23081C27.7426 8.41242 28.2113 8.70533 28.4809 8.92794C28.7387 9.13298 29.2837 9.64265 29.6939 10.0586C30.3209 10.6913 30.4381 10.8436 30.4733 11.0428C30.4967 11.1716 30.4908 11.365 30.4557 11.4821C30.4088 11.6286 30.1158 11.9566 29.4361 12.6303C28.8384 13.222 28.3168 13.679 28.0414 13.8606C27.8012 14.0129 27.4203 14.2238 27.1917 14.3292C26.9632 14.4347 26.5354 14.587 25.6975 14.8213L24.9122 14.0773C24.4786 13.6614 23.9219 13.181 23.6699 12.9994C23.4121 12.812 22.955 12.5308 22.6503 12.3726C22.3456 12.2086 21.8534 11.9977 21.5662 11.8922C21.2791 11.7926 20.7869 11.6637 20.4822 11.5993C20.1775 11.5407 19.7438 11.4704 19.1051 11.4118L19.0289 10.7909C18.982 10.4452 18.8883 9.92384 18.8121 9.63679C18.7418 9.34974 18.6012 8.91037 18.5074 8.67018C18.4136 8.42999 18.2085 7.99063 18.0503 7.70357C17.8921 7.41066 17.6108 6.97715 17.4292 6.73697C17.2475 6.49678 16.7787 5.96368 15.6771 4.80375L15.8236 4.26479C15.9056 3.96602 16.1048 3.45636 16.2631 3.13415C16.4213 2.81195 16.685 2.37844 16.8432 2.16755Z" fill="currentColor"/>
<path d="M26.0491 0.445226C26.2893 0.357352 26.7522 0.222613 27.0745 0.152314C27.5668 0.0351494 27.8363 0.0175747 28.7563 0.0117165C29.7994 0.00585823 29.8697 0.0117165 30.0689 0.134739C30.1861 0.205038 30.3385 0.374927 30.3971 0.503808C30.5084 0.720562 30.5143 0.820152 30.485 1.88049C30.4615 2.58348 30.4147 3.17516 30.3619 3.43292C30.3092 3.65554 30.1978 4.0539 30.1158 4.31166C30.0279 4.56942 29.8463 5.00293 29.7056 5.27827C29.5708 5.54774 29.3247 5.95782 29.1606 6.18629C28.9966 6.4089 28.8149 6.66081 28.6391 6.88928L28.059 6.61394C27.7426 6.46163 27.2738 6.26831 27.0159 6.18629C26.7581 6.10428 26.3479 5.99297 26.1077 5.9461C25.8615 5.89924 25.4572 5.84066 24.7306 5.77622L24.6837 5.30756C24.6603 5.0498 24.6017 4.628 24.5489 4.37024C24.4962 4.11248 24.3848 3.7024 24.3087 3.46221C24.2266 3.21617 24.0391 2.76508 23.6172 1.88635L23.793 1.73404C23.8868 1.65202 24.1798 1.44112 24.4376 1.26538C24.6954 1.09549 25.0646 0.872876 25.258 0.779145C25.4513 0.679555 25.8029 0.533099 26.0491 0.445226Z" fill="currentColor"/>
<path d="M0.593758 28.7522C0.640637 28.6467 1.75987 27.4868 3.06662 26.1746C4.37924 24.8623 5.46331 23.7844 5.48089 23.7844C5.49261 23.7844 5.78561 24.0656 6.74077 25.0205L4.39682 27.3638C3.10764 28.6585 1.95325 29.7774 1.83019 29.8535C1.69541 29.9473 1.52548 30 1.37898 30C1.23834 30 1.05669 29.9473 0.927771 29.8653C0.810573 29.795 0.664076 29.6368 0.605478 29.5138C0.546879 29.3907 0.5 29.215 0.5 29.1213C0.5 29.0217 0.541019 28.8576 0.593758 28.7522Z" fill="currentColor"/>
<path d="M12.2901 6.63738C12.9757 5.95196 13.2335 5.72935 13.3917 5.68834C13.5031 5.66491 13.6613 5.65319 13.7433 5.67077C13.8195 5.68834 13.9543 5.73521 14.0363 5.77622C14.1125 5.81722 14.5696 6.23902 15.0383 6.71939C15.6419 7.32865 15.9994 7.7563 16.2572 8.1488C16.4506 8.45343 16.6967 8.89865 16.7963 9.1447C16.8959 9.38489 17.0483 9.83011 17.1245 10.1406C17.2534 10.6093 17.2768 10.8319 17.2827 11.6052C17.2827 12.1383 17.2534 12.6772 17.2065 12.9233C17.1655 13.1459 17.142 13.3392 17.1479 13.345C17.1596 13.3509 17.4175 13.3216 17.728 13.2748C18.0327 13.222 18.5191 13.1869 18.8121 13.181C19.0992 13.181 19.5739 13.222 19.8669 13.2748C20.154 13.3216 20.6287 13.4446 20.9217 13.5442C21.2088 13.638 21.6717 13.843 21.9471 13.9895C22.2167 14.1418 22.6269 14.4112 22.8554 14.5929C23.0781 14.7803 23.5996 15.2666 24.004 15.6825C24.5196 16.2039 24.7657 16.4968 24.8068 16.6432C24.8419 16.7663 24.8419 16.9361 24.8126 17.0767C24.7716 17.2759 24.6192 17.4575 23.8633 18.2074C23.3711 18.6995 22.7734 19.2384 22.5331 19.4083C22.287 19.5723 21.8534 19.8243 21.5662 19.959C21.2733 20.0996 20.8103 20.2695 20.0251 20.4804L19.2985 19.7715C18.9 19.3849 18.3785 18.9221 18.1382 18.7405C17.8921 18.5589 17.5112 18.307 17.2885 18.1722C17.06 18.0375 16.6264 17.8266 16.3217 17.7036C16.0111 17.5806 15.4837 17.4048 15.1497 17.3228C14.8098 17.2349 14.3059 17.147 14.0363 17.1295C13.7609 17.1119 13.5089 17.0709 13.4796 17.0475C13.4445 17.024 13.3976 16.7721 13.3741 16.4851C13.3566 16.198 13.2628 15.6883 13.1808 15.3544C13.0929 15.0146 12.9229 14.4874 12.794 14.1769C12.671 13.8723 12.46 13.4388 12.3252 13.2162C12.1963 12.9877 11.9385 12.6069 11.7568 12.3609C11.581 12.1207 11.1122 11.5993 10.0223 10.4804L10.1512 9.97071C10.2274 9.68951 10.4032 9.215 10.5555 8.90451C10.702 8.59988 10.954 8.16637 11.1064 7.94376C11.2646 7.71529 11.7978 7.12947 12.2901 6.63738Z" fill="currentColor"/>
<path d="M6.68803 12.2378C7.13338 11.7985 7.55529 11.4118 7.61975 11.3767C7.68421 11.3415 7.83656 11.3122 7.95376 11.3122C8.07682 11.3122 8.24675 11.3474 8.33465 11.3943C8.42255 11.4353 8.90892 11.8922 9.40701 12.4019C9.91096 12.9115 10.4325 13.5032 10.5673 13.7141C10.7079 13.9192 10.9071 14.2765 11.0126 14.505C11.124 14.7276 11.2646 15.0732 11.329 15.2666C11.3935 15.4599 11.4931 15.8289 11.5459 16.0867C11.6162 16.403 11.6455 16.8073 11.6455 17.3462C11.6455 17.8032 11.6045 18.3187 11.5576 18.5765C11.5048 18.8166 11.4697 19.0158 11.4755 19.0217C11.4814 19.0275 11.6806 18.9924 11.9268 18.9397C12.1787 18.8928 12.6944 18.8518 13.1573 18.8518C13.6906 18.8518 14.1008 18.8811 14.4172 18.9514C14.675 19.0041 15.0442 19.1037 15.2376 19.1681C15.431 19.2326 15.7708 19.3732 15.9994 19.4845C16.222 19.5899 16.5795 19.795 16.7905 19.9297C16.9955 20.0644 17.5874 20.5858 18.0972 21.0896C18.607 21.5876 19.0641 22.0738 19.111 22.1617C19.152 22.2496 19.193 22.4136 19.193 22.5308C19.193 22.6421 19.152 22.8061 19.1051 22.894C19.0641 22.9818 18.6304 23.4388 18.1558 23.9133C17.6753 24.382 17.1303 24.8858 16.9369 25.0264C16.7436 25.167 16.3568 25.3896 16.0873 25.5243C15.8119 25.6591 15.431 25.8231 15.2376 25.8875C15.0442 25.952 14.675 26.0516 14.4172 26.1043C14.1008 26.1746 13.6847 26.2097 13.1573 26.2097C12.6124 26.2097 12.208 26.1746 11.8682 26.1043C11.5927 26.0457 11.1826 25.9344 10.9599 25.8524C10.7313 25.7704 10.3739 25.618 10.1688 25.5126C9.95784 25.4071 9.58867 25.1845 9.34841 25.0146C9.07886 24.8272 8.29949 24.0949 7.32089 23.1224C6.23682 22.0328 5.63911 21.3825 5.42229 21.0662C5.2465 20.8084 5.00624 20.3808 4.88319 20.1289C4.76599 19.8711 4.59605 19.42 4.51401 19.133C4.43198 18.8401 4.33236 18.3128 4.2972 17.9613C4.25032 17.481 4.25032 17.1588 4.2972 16.7311C4.33822 16.4089 4.4144 15.9461 4.47885 15.7059C4.54331 15.4599 4.67223 15.0791 4.76013 14.8565C4.85389 14.628 5.02968 14.2707 5.15274 14.0656C5.2758 13.8547 5.49261 13.5384 5.62739 13.3626C5.76803 13.181 6.24268 12.6772 6.68803 12.2378Z" fill="currentColor"/>
</svg>
